<svg xmlns="http://www.w3.org/2000/svg" id="prefigure-line-integral-figure" width="260" height="260" viewBox="0 0 260 260">
  <defs>
    <clipPath id="prefigure-line-integral-clipPath-0">
      <rect x="5.0" y="5.0" width="250.0" height="250.0"/>
    </clipPath>
    <clipPath id="prefigure-line-integral-clipPath-1">
      <rect x="5.0" y="5.0" width="250.0" height="250.0"/>
    </clipPath>
    <marker id="prefigure-line-integral-arrow-head-mid-4_None_24_60-blue" markerWidth="19.5" markerHeight="17.3" markerUnits="userSpaceOnUse" orient="auto-start-reverse" refX="14.6" refY="8.7">
      <path d="M 19.5 8.7L 0.0 17.3L 3.8 10.7L 3.8 6.7L 0.0 0.0Z" fill="blue" stroke="none"/>
    </marker>
    <marker id="prefigure-line-integral-arrow-head-mid-4_None_24_60-blue-outline" markerWidth="23.5" markerHeight="21.3" markerUnits="userSpaceOnUse" orient="auto-start-reverse" refX="16.6" refY="10.7">
      <path d="M 22.3 12.5 L 2.8 21.2 A 2 2 0 0 1 0.0 19.3 L 0.0 2.0 A 2 2 0 0 1 2.8 0.2 L 22.3 8.8 A 2 2 0 0 1 22.3 12.5 Z" fill="white" stroke="none"/>
    </marker>
  </defs>
  <g id="prefigure-line-integral-grid-axes">
    <g id="prefigure-line-integral-grid" stroke="#ccc" stroke-width="1">
      <line x1="5.0" y1="255.0" x2="5.0" y2="5.0"/>
      <line x1="55.0" y1="255.0" x2="55.0" y2="5.0"/>
      <line x1="105.0" y1="255.0" x2="105.0" y2="5.0"/>
      <line x1="155.0" y1="255.0" x2="155.0" y2="5.0"/>
      <line x1="205.0" y1="255.0" x2="205.0" y2="5.0"/>
      <line x1="255.0" y1="255.0" x2="255.0" y2="5.0"/>
      <line x1="5.0" y1="255.0" x2="255.0" y2="255.0"/>
      <line x1="5.0" y1="205.0" x2="255.0" y2="205.0"/>
      <line x1="5.0" y1="155.0" x2="255.0" y2="155.0"/>
      <line x1="5.0" y1="105.0" x2="255.0" y2="105.0"/>
      <line x1="5.0" y1="55.0" x2="255.0" y2="55.0"/>
      <line x1="5.0" y1="5.0" x2="255.0" y2="5.0"/>
    </g>
    <g id="prefigure-line-integral-axes" stroke="black" stroke-width="2">
      <line id="prefigure-line-integral-line-12" x1="5.0" y1="205.0" x2="255.0" y2="205.0" stroke="black" stroke-width="2"/>
      <g>
        <line id="prefigure-line-integral-line-13" x1="105.0" y1="208.0" x2="105.0" y2="202.0"/>
        <line id="prefigure-line-integral-line-14" x1="155.0" y1="208.0" x2="155.0" y2="202.0"/>
        <line id="prefigure-line-integral-line-15" x1="205.0" y1="208.0" x2="205.0" y2="202.0"/>
      </g>
      <line id="prefigure-line-integral-line-16" x1="55.0" y1="255.0" x2="55.0" y2="5.0" stroke="black" stroke-width="2"/>
      <g>
        <line id="prefigure-line-integral-line-17" x1="52.0" y1="155.0" x2="58.0" y2="155.0"/>
        <line id="prefigure-line-integral-line-18" x1="52.0" y1="105.0" x2="58.0" y2="105.0"/>
        <line id="prefigure-line-integral-line-19" x1="52.0" y1="55.0" x2="58.0" y2="55.0"/>
      </g>
    </g>
    <g id="prefigure-line-integral-label-0" transform="translate(251.0,201.0) translate(-10.4,-8.2)">
      <g id="prefigure-line-integral-g-0">
        <svg xmlns:xlink="http://www.w3.org/1999/xlink" style="vertical-align: -0.200px" width="10.352px" height="8.200px" role="img" focusable="false" viewBox="0 -442 572 453" x="0.0" y="0.0">
          <defs>
            <path id="prefigure-line-integral-MJX-2-TEX-I-1D465" d="M52 289Q59 331 106 386T222 442Q257 442 286 424T329 379Q371 442 430 442Q467 442 494 420T522 361Q522 332 508 314T481 292T458 288Q439 288 427 299T415 328Q415 374 465 391Q454 404 425 404Q412 404 406 402Q368 386 350 336Q290 115 290 78Q290 50 306 38T341 26Q378 26 414 59T463 140Q466 150 469 151T485 153H489Q504 153 504 145Q504 144 502 134Q486 77 440 33T333 -11Q263 -11 227 52Q186 -10 133 -10H127Q78 -10 57 16T35 71Q35 103 54 123T99 143Q142 143 142 101Q142 81 130 66T107 46T94 41L91 40Q91 39 97 36T113 29T132 26Q168 26 194 71Q203 87 217 139T245 247T261 313Q266 340 266 352Q266 380 251 392T217 404Q177 404 142 372T93 290Q91 281 88 280T72 278H58Q52 284 52 289Z"/>
          </defs>
          <g stroke="currentColor" fill="currentColor" stroke-width="0" transform="scale(1,-1)">
            <g data-mml-node="math">
              <g data-mml-node="mi" data-semantic-type="identifier" data-semantic-role="latinletter" data-semantic-font="italic" data-semantic-annotation="clearspeak:simple" data-semantic-id="0" data-semantic-speech="x">
                <use data-c="1D465" xlink:href="#prefigure-line-integral-MJX-2-TEX-I-1D465"/>
              </g>
            </g>
          </g>
        </svg>
      </g>
    </g>
    <g id="prefigure-line-integral-label-1" transform="translate(59.0,9.0) translate(0.0,-0.0)">
      <g id="prefigure-line-integral-g-1">
        <svg xmlns:xlink="http://www.w3.org/1999/xlink" style="vertical-align: -3.712px" width="8.872px" height="11.712px" role="img" focusable="false" viewBox="0 -442 490 647" x="0.0" y="0.0">
          <defs>
            <path id="prefigure-line-integral-MJX-3-TEX-I-1D466" d="M21 287Q21 301 36 335T84 406T158 442Q199 442 224 419T250 355Q248 336 247 334Q247 331 231 288T198 191T182 105Q182 62 196 45T238 27Q261 27 281 38T312 61T339 94Q339 95 344 114T358 173T377 247Q415 397 419 404Q432 431 462 431Q475 431 483 424T494 412T496 403Q496 390 447 193T391 -23Q363 -106 294 -155T156 -205Q111 -205 77 -183T43 -117Q43 -95 50 -80T69 -58T89 -48T106 -45Q150 -45 150 -87Q150 -107 138 -122T115 -142T102 -147L99 -148Q101 -153 118 -160T152 -167H160Q177 -167 186 -165Q219 -156 247 -127T290 -65T313 -9T321 21L315 17Q309 13 296 6T270 -6Q250 -11 231 -11Q185 -11 150 11T104 82Q103 89 103 113Q103 170 138 262T173 379Q173 380 173 381Q173 390 173 393T169 400T158 404H154Q131 404 112 385T82 344T65 302T57 280Q55 278 41 278H27Q21 284 21 287Z"/>
          </defs>
          <g stroke="currentColor" fill="currentColor" stroke-width="0" transform="scale(1,-1)">
            <g data-mml-node="math">
              <g data-mml-node="mi" data-semantic-type="identifier" data-semantic-role="latinletter" data-semantic-font="italic" data-semantic-annotation="clearspeak:simple" data-semantic-id="0" data-semantic-speech="y">
                <use data-c="1D466" xlink:href="#prefigure-line-integral-MJX-3-TEX-I-1D466"/>
              </g>
            </g>
          </g>
        </svg>
      </g>
    </g>
    <g id="prefigure-line-integral-label-2" transform="translate(105.0,216.0) translate(-4.5,-0.0)">
      <g id="prefigure-line-integral-g-2">
        <svg xmlns:xlink="http://www.w3.org/1999/xlink" style="vertical-align: 0.000px" width="9.048px" height="12.056px" role="img" focusable="false" viewBox="0 -666 500 666" x="0.0" y="0.0">
          <defs>
            <path id="prefigure-line-integral-MJX-4-TEX-N-31" d="M213 578L200 573Q186 568 160 563T102 556H83V602H102Q149 604 189 617T245 641T273 663Q275 666 285 666Q294 666 302 660V361L303 61Q310 54 315 52T339 48T401 46H427V0H416Q395 3 257 3Q121 3 100 0H88V46H114Q136 46 152 46T177 47T193 50T201 52T207 57T213 61V578Z"/>
          </defs>
          <g stroke="currentColor" fill="currentColor" stroke-width="0" transform="scale(1,-1)">
            <g data-mml-node="math">
              <g data-mml-node="mtext" data-semantic-type="text" data-semantic-role="integer" data-semantic-font="normal" data-semantic-annotation="clearspeak:unit" data-semantic-id="0" data-semantic-speech="1">
                <use data-c="31" xlink:href="#prefigure-line-integral-MJX-4-TEX-N-31"/>
              </g>
            </g>
          </g>
        </svg>
      </g>
    </g>
    <g id="prefigure-line-integral-label-3" transform="translate(155.0,216.0) translate(-4.5,-0.0)">
      <g id="prefigure-line-integral-g-3">
        <svg xmlns:xlink="http://www.w3.org/1999/xlink" style="vertical-align: 0.000px" width="9.048px" height="12.056px" role="img" focusable="false" viewBox="0 -666 500 666" x="0.0" y="0.0">
          <defs>
            <path id="prefigure-line-integral-MJX-5-TEX-N-32" d="M109 429Q82 429 66 447T50 491Q50 562 103 614T235 666Q326 666 387 610T449 465Q449 422 429 383T381 315T301 241Q265 210 201 149L142 93L218 92Q375 92 385 97Q392 99 409 186V189H449V186Q448 183 436 95T421 3V0H50V19V31Q50 38 56 46T86 81Q115 113 136 137Q145 147 170 174T204 211T233 244T261 278T284 308T305 340T320 369T333 401T340 431T343 464Q343 527 309 573T212 619Q179 619 154 602T119 569T109 550Q109 549 114 549Q132 549 151 535T170 489Q170 464 154 447T109 429Z"/>
          </defs>
          <g stroke="currentColor" fill="currentColor" stroke-width="0" transform="scale(1,-1)">
            <g data-mml-node="math">
              <g data-mml-node="mtext" data-semantic-type="text" data-semantic-role="integer" data-semantic-font="normal" data-semantic-annotation="clearspeak:unit" data-semantic-id="0" data-semantic-speech="2">
                <use data-c="32" xlink:href="#prefigure-line-integral-MJX-5-TEX-N-32"/>
              </g>
            </g>
          </g>
        </svg>
      </g>
    </g>
    <g id="prefigure-line-integral-label-4" transform="translate(205.0,216.0) translate(-4.5,-0.0)">
      <g id="prefigure-line-integral-g-4">
        <svg xmlns:xlink="http://www.w3.org/1999/xlink" style="vertical-align: -0.400px" width="9.048px" height="12.432px" role="img" focusable="false" viewBox="0 -665 500 687" x="0.0" y="0.0">
          <defs>
            <path id="prefigure-line-integral-MJX-6-TEX-N-33" d="M127 463Q100 463 85 480T69 524Q69 579 117 622T233 665Q268 665 277 664Q351 652 390 611T430 522Q430 470 396 421T302 350L299 348Q299 347 308 345T337 336T375 315Q457 262 457 175Q457 96 395 37T238 -22Q158 -22 100 21T42 130Q42 158 60 175T105 193Q133 193 151 175T169 130Q169 119 166 110T159 94T148 82T136 74T126 70T118 67L114 66Q165 21 238 21Q293 21 321 74Q338 107 338 175V195Q338 290 274 322Q259 328 213 329L171 330L168 332Q166 335 166 348Q166 366 174 366Q202 366 232 371Q266 376 294 413T322 525V533Q322 590 287 612Q265 626 240 626Q208 626 181 615T143 592T132 580H135Q138 579 143 578T153 573T165 566T175 555T183 540T186 520Q186 498 172 481T127 463Z"/>
          </defs>
          <g stroke="currentColor" fill="currentColor" stroke-width="0" transform="scale(1,-1)">
            <g data-mml-node="math">
              <g data-mml-node="mtext" data-semantic-type="text" data-semantic-role="integer" data-semantic-font="normal" data-semantic-annotation="clearspeak:unit" data-semantic-id="0" data-semantic-speech="3">
                <use data-c="33" xlink:href="#prefigure-line-integral-MJX-6-TEX-N-33"/>
              </g>
            </g>
          </g>
        </svg>
      </g>
    </g>
    <g id="prefigure-line-integral-label-5" transform="translate(44.0,155.0) translate(-9.0,-6.0)">
      <g id="prefigure-line-integral-g-5">
        <svg xmlns:xlink="http://www.w3.org/1999/xlink" style="vertical-align: 0.000px" width="9.048px" height="12.056px" role="img" focusable="false" viewBox="0 -666 500 666" x="0.0" y="0.0">
          <defs>
            <path id="prefigure-line-integral-MJX-7-TEX-N-31" d="M213 578L200 573Q186 568 160 563T102 556H83V602H102Q149 604 189 617T245 641T273 663Q275 666 285 666Q294 666 302 660V361L303 61Q310 54 315 52T339 48T401 46H427V0H416Q395 3 257 3Q121 3 100 0H88V46H114Q136 46 152 46T177 47T193 50T201 52T207 57T213 61V578Z"/>
          </defs>
          <g stroke="currentColor" fill="currentColor" stroke-width="0" transform="scale(1,-1)">
            <g data-mml-node="math">
              <g data-mml-node="mtext" data-semantic-type="text" data-semantic-role="integer" data-semantic-font="normal" data-semantic-annotation="clearspeak:unit" data-semantic-id="0" data-semantic-speech="1">
                <use data-c="31" xlink:href="#prefigure-line-integral-MJX-7-TEX-N-31"/>
              </g>
            </g>
          </g>
        </svg>
      </g>
    </g>
    <g id="prefigure-line-integral-label-6" transform="translate(44.0,105.0) translate(-9.0,-6.0)">
      <g id="prefigure-line-integral-g-6">
        <svg xmlns:xlink="http://www.w3.org/1999/xlink" style="vertical-align: 0.000px" width="9.048px" height="12.056px" role="img" focusable="false" viewBox="0 -666 500 666" x="0.0" y="0.0">
          <defs>
            <path id="prefigure-line-integral-MJX-8-TEX-N-32" d="M109 429Q82 429 66 447T50 491Q50 562 103 614T235 666Q326 666 387 610T449 465Q449 422 429 383T381 315T301 241Q265 210 201 149L142 93L218 92Q375 92 385 97Q392 99 409 186V189H449V186Q448 183 436 95T421 3V0H50V19V31Q50 38 56 46T86 81Q115 113 136 137Q145 147 170 174T204 211T233 244T261 278T284 308T305 340T320 369T333 401T340 431T343 464Q343 527 309 573T212 619Q179 619 154 602T119 569T109 550Q109 549 114 549Q132 549 151 535T170 489Q170 464 154 447T109 429Z"/>
          </defs>
          <g stroke="currentColor" fill="currentColor" stroke-width="0" transform="scale(1,-1)">
            <g data-mml-node="math">
              <g data-mml-node="mtext" data-semantic-type="text" data-semantic-role="integer" data-semantic-font="normal" data-semantic-annotation="clearspeak:unit" data-semantic-id="0" data-semantic-speech="2">
                <use data-c="32" xlink:href="#prefigure-line-integral-MJX-8-TEX-N-32"/>
              </g>
            </g>
          </g>
        </svg>
      </g>
    </g>
    <g id="prefigure-line-integral-label-7" transform="translate(44.0,55.0) translate(-9.0,-6.2)">
      <g id="prefigure-line-integral-g-7">
        <svg xmlns:xlink="http://www.w3.org/1999/xlink" style="vertical-align: -0.400px" width="9.048px" height="12.432px" role="img" focusable="false" viewBox="0 -665 500 687" x="0.0" y="0.0">
          <defs>
            <path id="prefigure-line-integral-MJX-9-TEX-N-33" d="M127 463Q100 463 85 480T69 524Q69 579 117 622T233 665Q268 665 277 664Q351 652 390 611T430 522Q430 470 396 421T302 350L299 348Q299 347 308 345T337 336T375 315Q457 262 457 175Q457 96 395 37T238 -22Q158 -22 100 21T42 130Q42 158 60 175T105 193Q133 193 151 175T169 130Q169 119 166 110T159 94T148 82T136 74T126 70T118 67L114 66Q165 21 238 21Q293 21 321 74Q338 107 338 175V195Q338 290 274 322Q259 328 213 329L171 330L168 332Q166 335 166 348Q166 366 174 366Q202 366 232 371Q266 376 294 413T322 525V533Q322 590 287 612Q265 626 240 626Q208 626 181 615T143 592T132 580H135Q138 579 143 578T153 573T165 566T175 555T183 540T186 520Q186 498 172 481T127 463Z"/>
          </defs>
          <g stroke="currentColor" fill="currentColor" stroke-width="0" transform="scale(1,-1)">
            <g data-mml-node="math">
              <g data-mml-node="mtext" data-semantic-type="text" data-semantic-role="integer" data-semantic-font="normal" data-semantic-annotation="clearspeak:unit" data-semantic-id="0" data-semantic-speech="3">
                <use data-c="33" xlink:href="#prefigure-line-integral-MJX-9-TEX-N-33"/>
              </g>
            </g>
          </g>
        </svg>
      </g>
    </g>
  </g>
  <path id="prefigure-line-integral-path-0" stroke="blue" stroke-width="4" fill="none" marker-mid="url(#prefigure-line-integral-arrow-head-mid-4_None_24_60-blue)" d="M 105.0 155.0 L 185.0 155.0 L 205.0 155.0"/>
  <path id="prefigure-line-integral-path-1" stroke="blue" stroke-width="4" fill="none" marker-mid="url(#prefigure-line-integral-arrow-head-mid-4_None_24_60-blue)" d="M 205.0 155.0 L 205.0 75.0 L 205.0 55.0"/>
  <path id="prefigure-line-integral-path-2" stroke="blue" stroke-width="4" fill="none" marker-mid="url(#prefigure-line-integral-arrow-head-mid-4_None_24_60-blue)" d="M 205.0 55.0 L 125.0 135.0 L 105.0 155.0"/>
  <g id="prefigure-line-integral-label-8" transform="translate(155.0,164.0) translate(-10.4,-0.0)">
    <g id="prefigure-line-integral-g-8">
      <svg xmlns:xlink="http://www.w3.org/1999/xlink" style="vertical-align: -2.712px" width="20.840px" height="15.472px" role="img" focusable="false" viewBox="0 -705 1151.6 855" x="0.0" y="0.0">
        <defs>
          <path id="prefigure-line-integral-MJX-10-TEX-I-1D436" d="M50 252Q50 367 117 473T286 641T490 704Q580 704 633 653Q642 643 648 636T656 626L657 623Q660 623 684 649Q691 655 699 663T715 679T725 690L740 705H746Q760 705 760 698Q760 694 728 561Q692 422 692 421Q690 416 687 415T669 413H653Q647 419 647 422Q647 423 648 429T650 449T651 481Q651 552 619 605T510 659Q484 659 454 652T382 628T299 572T226 479Q194 422 175 346T156 222Q156 108 232 58Q280 24 350 24Q441 24 512 92T606 240Q610 253 612 255T628 257Q648 257 648 248Q648 243 647 239Q618 132 523 55T319 -22Q206 -22 128 53T50 252Z"/>
          <path id="prefigure-line-integral-MJX-10-TEX-N-31" d="M213 578L200 573Q186 568 160 563T102 556H83V602H102Q149 604 189 617T245 641T273 663Q275 666 285 666Q294 666 302 660V361L303 61Q310 54 315 52T339 48T401 46H427V0H416Q395 3 257 3Q121 3 100 0H88V46H114Q136 46 152 46T177 47T193 50T201 52T207 57T213 61V578Z"/>
        </defs>
        <g stroke="currentColor" fill="currentColor" stroke-width="0" transform="scale(1,-1)">
          <g data-mml-node="math">
            <g data-mml-node="mstyle">
              <g data-mml-node="msub" data-semantic-type="subscript" data-semantic-role="latinletter" data-semantic-id="2" data-semantic-children="0,1" data-semantic-speech="upper C 1">
                <g data-mml-node="mi" data-semantic-type="identifier" data-semantic-role="latinletter" data-semantic-font="italic" data-semantic-annotation="clearspeak:simple" data-semantic-id="0" data-semantic-parent="2" data-semantic-speech="upper C" data-semantic-prefix="Base">
                  <use data-c="1D436" xlink:href="#prefigure-line-integral-MJX-10-TEX-I-1D436"/>
                </g>
                <g data-mml-node="mn" transform="translate(748,-150) scale(0.707)" data-semantic-type="number" data-semantic-role="integer" data-semantic-font="normal" data-semantic-annotation="clearspeak:simple" data-semantic-id="1" data-semantic-parent="2" data-semantic-speech="1" data-semantic-prefix="Subscript">
                  <use data-c="31" xlink:href="#prefigure-line-integral-MJX-10-TEX-N-31"/>
                </g>
              </g>
            </g>
          </g>
        </g>
      </svg>
    </g>
  </g>
  <g id="prefigure-line-integral-label-9" transform="translate(214.0,105.0) translate(0.0,-7.7)">
    <g id="prefigure-line-integral-g-9">
      <svg xmlns:xlink="http://www.w3.org/1999/xlink" style="vertical-align: -2.712px" width="20.840px" height="15.472px" role="img" focusable="false" viewBox="0 -705 1151.6 855" x="0.0" y="0.0">
        <defs>
          <path id="prefigure-line-integral-MJX-11-TEX-I-1D436" d="M50 252Q50 367 117 473T286 641T490 704Q580 704 633 653Q642 643 648 636T656 626L657 623Q660 623 684 649Q691 655 699 663T715 679T725 690L740 705H746Q760 705 760 698Q760 694 728 561Q692 422 692 421Q690 416 687 415T669 413H653Q647 419 647 422Q647 423 648 429T650 449T651 481Q651 552 619 605T510 659Q484 659 454 652T382 628T299 572T226 479Q194 422 175 346T156 222Q156 108 232 58Q280 24 350 24Q441 24 512 92T606 240Q610 253 612 255T628 257Q648 257 648 248Q648 243 647 239Q618 132 523 55T319 -22Q206 -22 128 53T50 252Z"/>
          <path id="prefigure-line-integral-MJX-11-TEX-N-32" d="M109 429Q82 429 66 447T50 491Q50 562 103 614T235 666Q326 666 387 610T449 465Q449 422 429 383T381 315T301 241Q265 210 201 149L142 93L218 92Q375 92 385 97Q392 99 409 186V189H449V186Q448 183 436 95T421 3V0H50V19V31Q50 38 56 46T86 81Q115 113 136 137Q145 147 170 174T204 211T233 244T261 278T284 308T305 340T320 369T333 401T340 431T343 464Q343 527 309 573T212 619Q179 619 154 602T119 569T109 550Q109 549 114 549Q132 549 151 535T170 489Q170 464 154 447T109 429Z"/>
        </defs>
        <g stroke="currentColor" fill="currentColor" stroke-width="0" transform="scale(1,-1)">
          <g data-mml-node="math">
            <g data-mml-node="mstyle">
              <g data-mml-node="msub" data-semantic-type="subscript" data-semantic-role="latinletter" data-semantic-id="2" data-semantic-children="0,1" data-semantic-speech="upper C 2">
                <g data-mml-node="mi" data-semantic-type="identifier" data-semantic-role="latinletter" data-semantic-font="italic" data-semantic-annotation="clearspeak:simple" data-semantic-id="0" data-semantic-parent="2" data-semantic-speech="upper C" data-semantic-prefix="Base">
                  <use data-c="1D436" xlink:href="#prefigure-line-integral-MJX-11-TEX-I-1D436"/>
                </g>
                <g data-mml-node="mn" transform="translate(748,-150) scale(0.707)" data-semantic-type="number" data-semantic-role="integer" data-semantic-font="normal" data-semantic-annotation="clearspeak:simple" data-semantic-id="1" data-semantic-parent="2" data-semantic-speech="2" data-semantic-prefix="Subscript">
                  <use data-c="32" xlink:href="#prefigure-line-integral-MJX-11-TEX-N-32"/>
                </g>
              </g>
            </g>
          </g>
        </g>
      </svg>
    </g>
  </g>
  <g id="prefigure-line-integral-label-10" transform="translate(153.0,99.0) translate(-20.8,-15.8)">
    <g id="prefigure-line-integral-g-10">
      <svg xmlns:xlink="http://www.w3.org/1999/xlink" style="vertical-align: -3.000px" width="20.840px" height="15.760px" role="img" focusable="false" viewBox="0 -705 1151.6 870.6" x="0.0" y="0.0">
        <defs>
          <path id="prefigure-line-integral-MJX-12-TEX-I-1D436" d="M50 252Q50 367 117 473T286 641T490 704Q580 704 633 653Q642 643 648 636T656 626L657 623Q660 623 684 649Q691 655 699 663T715 679T725 690L740 705H746Q760 705 760 698Q760 694 728 561Q692 422 692 421Q690 416 687 415T669 413H653Q647 419 647 422Q647 423 648 429T650 449T651 481Q651 552 619 605T510 659Q484 659 454 652T382 628T299 572T226 479Q194 422 175 346T156 222Q156 108 232 58Q280 24 350 24Q441 24 512 92T606 240Q610 253 612 255T628 257Q648 257 648 248Q648 243 647 239Q618 132 523 55T319 -22Q206 -22 128 53T50 252Z"/>
          <path id="prefigure-line-integral-MJX-12-TEX-N-33" d="M127 463Q100 463 85 480T69 524Q69 579 117 622T233 665Q268 665 277 664Q351 652 390 611T430 522Q430 470 396 421T302 350L299 348Q299 347 308 345T337 336T375 315Q457 262 457 175Q457 96 395 37T238 -22Q158 -22 100 21T42 130Q42 158 60 175T105 193Q133 193 151 175T169 130Q169 119 166 110T159 94T148 82T136 74T126 70T118 67L114 66Q165 21 238 21Q293 21 321 74Q338 107 338 175V195Q338 290 274 322Q259 328 213 329L171 330L168 332Q166 335 166 348Q166 366 174 366Q202 366 232 371Q266 376 294 413T322 525V533Q322 590 287 612Q265 626 240 626Q208 626 181 615T143 592T132 580H135Q138 579 143 578T153 573T165 566T175 555T183 540T186 520Q186 498 172 481T127 463Z"/>
        </defs>
        <g stroke="currentColor" fill="currentColor" stroke-width="0" transform="scale(1,-1)">
          <g data-mml-node="math">
            <g data-mml-node="mstyle">
              <g data-mml-node="msub" data-semantic-type="subscript" data-semantic-role="latinletter" data-semantic-id="2" data-semantic-children="0,1" data-semantic-speech="upper C 3">
                <g data-mml-node="mi" data-semantic-type="identifier" data-semantic-role="latinletter" data-semantic-font="italic" data-semantic-annotation="clearspeak:simple" data-semantic-id="0" data-semantic-parent="2" data-semantic-speech="upper C" data-semantic-prefix="Base">
                  <use data-c="1D436" xlink:href="#prefigure-line-integral-MJX-12-TEX-I-1D436"/>
                </g>
                <g data-mml-node="mn" transform="translate(748,-150) scale(0.707)" data-semantic-type="number" data-semantic-role="integer" data-semantic-font="normal" data-semantic-annotation="clearspeak:simple" data-semantic-id="1" data-semantic-parent="2" data-semantic-speech="3" data-semantic-prefix="Subscript">
                  <use data-c="33" xlink:href="#prefigure-line-integral-MJX-12-TEX-N-33"/>
                </g>
              </g>
            </g>
          </g>
        </g>
      </svg>
    </g>
  </g>
</svg>
