<svg xmlns="http://www.w3.org/2000/svg" id="prefigure-3d1-grid1-figure" width="260" height="260" viewBox="0 0 260 260">
  <defs>
    <clipPath id="prefigure-3d1-grid1-clipPath-0">
      <rect x="5.0" y="5.0" width="250.0" height="250.0"/>
    </clipPath>
    <clipPath id="prefigure-3d1-grid1-clipPath-1">
      <rect x="5.0" y="5.0" width="250.0" height="250.0"/>
    </clipPath>
  </defs>
  <g id="prefigure-3d1-grid1-grid-axes">
    <g id="prefigure-3d1-grid1-grid" stroke="#ccc" stroke-width="1">
      <line x1="5.0" y1="255.0" x2="5.0" y2="5.0"/>
      <line x1="36.2" y1="255.0" x2="36.2" y2="5.0"/>
      <line x1="67.5" y1="255.0" x2="67.5" y2="5.0"/>
      <line x1="98.8" y1="255.0" x2="98.8" y2="5.0"/>
      <line x1="130.0" y1="255.0" x2="130.0" y2="5.0"/>
      <line x1="161.2" y1="255.0" x2="161.2" y2="5.0"/>
      <line x1="192.5" y1="255.0" x2="192.5" y2="5.0"/>
      <line x1="223.8" y1="255.0" x2="223.8" y2="5.0"/>
      <line x1="255.0" y1="255.0" x2="255.0" y2="5.0"/>
      <line x1="5.0" y1="255.0" x2="255.0" y2="255.0"/>
      <line x1="5.0" y1="223.8" x2="255.0" y2="223.8"/>
      <line x1="5.0" y1="192.5" x2="255.0" y2="192.5"/>
      <line x1="5.0" y1="161.2" x2="255.0" y2="161.2"/>
      <line x1="5.0" y1="130.0" x2="255.0" y2="130.0"/>
      <line x1="5.0" y1="98.8" x2="255.0" y2="98.8"/>
      <line x1="5.0" y1="67.5" x2="255.0" y2="67.5"/>
      <line x1="5.0" y1="36.2" x2="255.0" y2="36.2"/>
      <line x1="5.0" y1="5.0" x2="255.0" y2="5.0"/>
    </g>
    <g id="prefigure-3d1-grid1-axes" stroke="black" stroke-width="2">
      <line id="prefigure-3d1-grid1-line-18" x1="5.0" y1="130.0" x2="255.0" y2="130.0" stroke="black" stroke-width="2"/>
      <g>
        <line id="prefigure-3d1-grid1-line-19" x1="67.5" y1="133.0" x2="67.5" y2="127.0"/>
        <line id="prefigure-3d1-grid1-line-20" x1="192.5" y1="133.0" x2="192.5" y2="127.0"/>
      </g>
      <line id="prefigure-3d1-grid1-line-21" x1="130.0" y1="255.0" x2="130.0" y2="5.0" stroke="black" stroke-width="2"/>
      <g>
        <line id="prefigure-3d1-grid1-line-22" x1="127.0" y1="192.5" x2="133.0" y2="192.5"/>
        <line id="prefigure-3d1-grid1-line-23" x1="127.0" y1="67.5" x2="133.0" y2="67.5"/>
      </g>
    </g>
    <g id="prefigure-3d1-grid1-label-0" transform="translate(251.0,126.0) translate(-44.7,-18.1)">
      <g id="prefigure-3d1-grid1-g-0">
        <svg xmlns:xlink="http://www.w3.org/1999/xlink" style="vertical-align: -4.528px" width="44.672px" height="18.096px" role="img" focusable="false" viewBox="0 -750 2468 1000" x="0.0" y="0.0">
          <defs>
            <path id="prefigure-3d1-grid1-MJX-2-TEX-I-1D445" d="M230 637Q203 637 198 638T193 649Q193 676 204 682Q206 683 378 683Q550 682 564 680Q620 672 658 652T712 606T733 563T739 529Q739 484 710 445T643 385T576 351T538 338L545 333Q612 295 612 223Q612 212 607 162T602 80V71Q602 53 603 43T614 25T640 16Q668 16 686 38T712 85Q717 99 720 102T735 105Q755 105 755 93Q755 75 731 36Q693 -21 641 -21H632Q571 -21 531 4T487 82Q487 109 502 166T517 239Q517 290 474 313Q459 320 449 321T378 323H309L277 193Q244 61 244 59Q244 55 245 54T252 50T269 48T302 46H333Q339 38 339 37T336 19Q332 6 326 0H311Q275 2 180 2Q146 2 117 2T71 2T50 1Q33 1 33 10Q33 12 36 24Q41 43 46 45Q50 46 61 46H67Q94 46 127 49Q141 52 146 61Q149 65 218 339T287 628Q287 635 230 637ZM630 554Q630 586 609 608T523 636Q521 636 500 636T462 637H440Q393 637 386 627Q385 624 352 494T319 361Q319 360 388 360Q466 361 492 367Q556 377 592 426Q608 449 619 486T630 554Z"/>
            <path id="prefigure-3d1-grid1-MJX-2-TEX-N-2062" d=""/>
            <path id="prefigure-3d1-grid1-MJX-2-TEX-I-1D452" d="M39 168Q39 225 58 272T107 350T174 402T244 433T307 442H310Q355 442 388 420T421 355Q421 265 310 237Q261 224 176 223Q139 223 138 221Q138 219 132 186T125 128Q125 81 146 54T209 26T302 45T394 111Q403 121 406 121Q410 121 419 112T429 98T420 82T390 55T344 24T281 -1T205 -11Q126 -11 83 42T39 168ZM373 353Q367 405 305 405Q272 405 244 391T199 357T170 316T154 280T149 261Q149 260 169 260Q282 260 327 284T373 353Z"/>
            <path id="prefigure-3d1-grid1-MJX-2-TEX-N-2061" d=""/>
            <path id="prefigure-3d1-grid1-MJX-2-TEX-N-28" d="M94 250Q94 319 104 381T127 488T164 576T202 643T244 695T277 729T302 750H315H319Q333 750 333 741Q333 738 316 720T275 667T226 581T184 443T167 250T184 58T225 -81T274 -167T316 -220T333 -241Q333 -250 318 -250H315H302L274 -226Q180 -141 137 -14T94 250Z"/>
            <path id="prefigure-3d1-grid1-MJX-2-TEX-I-1D467" d="M347 338Q337 338 294 349T231 360Q211 360 197 356T174 346T162 335T155 324L153 320Q150 317 138 317Q117 317 117 325Q117 330 120 339Q133 378 163 406T229 440Q241 442 246 442Q271 442 291 425T329 392T367 375Q389 375 411 408T434 441Q435 442 449 442H462Q468 436 468 434Q468 430 463 420T449 399T432 377T418 358L411 349Q368 298 275 214T160 106L148 94L163 93Q185 93 227 82T290 71Q328 71 360 90T402 140Q406 149 409 151T424 153Q443 153 443 143Q443 138 442 134Q425 72 376 31T278 -11Q252 -11 232 6T193 40T155 57Q111 57 76 -3Q70 -11 59 -11H54H41Q35 -5 35 -2Q35 13 93 84Q132 129 225 214T340 322Q352 338 347 338Z"/>
            <path id="prefigure-3d1-grid1-MJX-2-TEX-N-29" d="M60 749L64 750Q69 750 74 750H86L114 726Q208 641 251 514T294 250Q294 182 284 119T261 12T224 -76T186 -143T145 -194T113 -227T90 -246Q87 -249 86 -250H74Q66 -250 63 -250T58 -247T55 -238Q56 -237 66 -225Q221 -64 221 250T66 725Q56 737 55 738Q55 746 60 749Z"/>
          </defs>
          <g stroke="currentColor" fill="currentColor" stroke-width="0" transform="scale(1,-1)">
            <g data-mml-node="math" data-semantic-type="infixop" data-semantic-role="implicit" data-semantic-annotation="clearspeak:unit" data-semantic-id="9" data-semantic-children="0,7" data-semantic-content="8" data-semantic-speech="upper R e left parenthesis z right parenthesis">
              <g data-mml-node="mi" data-semantic-type="identifier" data-semantic-role="latinletter" data-semantic-font="italic" data-semantic-annotation="clearspeak:simple" data-semantic-id="0" data-semantic-parent="9" data-semantic-speech="upper R">
                <use data-c="1D445" xlink:href="#prefigure-3d1-grid1-MJX-2-TEX-I-1D445"/>
              </g>
              <g data-mml-node="mo" data-semantic-type="operator" data-semantic-role="multiplication" data-semantic-id="8" data-semantic-parent="9" data-semantic-added="true" data-semantic-operator="infixop,⁢" data-semantic-speech="times" transform="translate(759,0)">
                <use data-c="2062" xlink:href="#prefigure-3d1-grid1-MJX-2-TEX-N-2062"/>
              </g>
              <g data-mml-node="mrow" data-semantic-type="appl" data-semantic-role="simple function" data-semantic-annotation="clearspeak:simple" data-semantic-id="7" data-semantic-children="1,5" data-semantic-content="6,1" data-semantic-parent="9" data-semantic-speech="e left parenthesis z right parenthesis" transform="translate(759,0)">
                <g data-mml-node="mi" data-semantic-type="identifier" data-semantic-role="simple function" data-semantic-font="italic" data-semantic-annotation="clearspeak:simple" data-semantic-id="1" data-semantic-parent="7" data-semantic-operator="appl" data-semantic-speech="e">
                  <use data-c="1D452" xlink:href="#prefigure-3d1-grid1-MJX-2-TEX-I-1D452"/>
                </g>
                <g data-mml-node="mo" data-semantic-type="punctuation" data-semantic-role="application" data-semantic-id="6" data-semantic-parent="7" data-semantic-added="true" data-semantic-operator="appl" data-semantic-speech="of" transform="translate(466,0)">
                  <use data-c="2061" xlink:href="#prefigure-3d1-grid1-MJX-2-TEX-N-2061"/>
                </g>
                <g data-mml-node="mrow" data-semantic-type="fenced" data-semantic-role="leftright" data-semantic-id="5" data-semantic-children="3" data-semantic-content="2,4" data-semantic-parent="7" data-semantic-speech="left parenthesis z right parenthesis" transform="translate(466,0)">
                  <g data-mml-node="mo" data-semantic-type="fence" data-semantic-role="open" data-semantic-id="2" data-semantic-parent="5" data-semantic-operator="fenced" data-semantic-speech="left parenthesis">
                    <use data-c="28" xlink:href="#prefigure-3d1-grid1-MJX-2-TEX-N-28"/>
                  </g>
                  <g data-mml-node="mi" data-semantic-type="identifier" data-semantic-role="latinletter" data-semantic-font="italic" data-semantic-annotation="clearspeak:simple" data-semantic-id="3" data-semantic-parent="5" data-semantic-speech="z" transform="translate(389,0)">
                    <use data-c="1D467" xlink:href="#prefigure-3d1-grid1-MJX-2-TEX-I-1D467"/>
                  </g>
                  <g data-mml-node="mo" data-semantic-type="fence" data-semantic-role="close" data-semantic-id="4" data-semantic-parent="5" data-semantic-operator="fenced" data-semantic-speech="right parenthesis" transform="translate(854,0)">
                    <use data-c="29" xlink:href="#prefigure-3d1-grid1-MJX-2-TEX-N-29"/>
                  </g>
                </g>
              </g>
            </g>
          </g>
        </svg>
      </g>
    </g>
    <g id="prefigure-3d1-grid1-label-1" transform="translate(134.0,9.0) translate(0.0,-0.0)">
      <g id="prefigure-3d1-grid1-g-1">
        <svg xmlns:xlink="http://www.w3.org/1999/xlink" style="vertical-align: -4.528px" width="47.512px" height="18.096px" role="img" focusable="false" viewBox="0 -750 2625 1000" x="0.0" y="0.0">
          <defs>
            <path id="prefigure-3d1-grid1-MJX-3-TEX-I-1D43C" d="M43 1Q26 1 26 10Q26 12 29 24Q34 43 39 45Q42 46 54 46H60Q120 46 136 53Q137 53 138 54Q143 56 149 77T198 273Q210 318 216 344Q286 624 286 626Q284 630 284 631Q274 637 213 637H193Q184 643 189 662Q193 677 195 680T209 683H213Q285 681 359 681Q481 681 487 683H497Q504 676 504 672T501 655T494 639Q491 637 471 637Q440 637 407 634Q393 631 388 623Q381 609 337 432Q326 385 315 341Q245 65 245 59Q245 52 255 50T307 46H339Q345 38 345 37T342 19Q338 6 332 0H316Q279 2 179 2Q143 2 113 2T65 2T43 1Z"/>
            <path id="prefigure-3d1-grid1-MJX-3-TEX-N-2062" d=""/>
            <path id="prefigure-3d1-grid1-MJX-3-TEX-I-1D45A" d="M21 287Q22 293 24 303T36 341T56 388T88 425T132 442T175 435T205 417T221 395T229 376L231 369Q231 367 232 367L243 378Q303 442 384 442Q401 442 415 440T441 433T460 423T475 411T485 398T493 385T497 373T500 364T502 357L510 367Q573 442 659 442Q713 442 746 415T780 336Q780 285 742 178T704 50Q705 36 709 31T724 26Q752 26 776 56T815 138Q818 149 821 151T837 153Q857 153 857 145Q857 144 853 130Q845 101 831 73T785 17T716 -10Q669 -10 648 17T627 73Q627 92 663 193T700 345Q700 404 656 404H651Q565 404 506 303L499 291L466 157Q433 26 428 16Q415 -11 385 -11Q372 -11 364 -4T353 8T350 18Q350 29 384 161L420 307Q423 322 423 345Q423 404 379 404H374Q288 404 229 303L222 291L189 157Q156 26 151 16Q138 -11 108 -11Q95 -11 87 -5T76 7T74 17Q74 30 112 181Q151 335 151 342Q154 357 154 369Q154 405 129 405Q107 405 92 377T69 316T57 280Q55 278 41 278H27Q21 284 21 287Z"/>
            <path id="prefigure-3d1-grid1-MJX-3-TEX-N-2061" d=""/>
            <path id="prefigure-3d1-grid1-MJX-3-TEX-N-28" d="M94 250Q94 319 104 381T127 488T164 576T202 643T244 695T277 729T302 750H315H319Q333 750 333 741Q333 738 316 720T275 667T226 581T184 443T167 250T184 58T225 -81T274 -167T316 -220T333 -241Q333 -250 318 -250H315H302L274 -226Q180 -141 137 -14T94 250Z"/>
            <path id="prefigure-3d1-grid1-MJX-3-TEX-I-1D467" d="M347 338Q337 338 294 349T231 360Q211 360 197 356T174 346T162 335T155 324L153 320Q150 317 138 317Q117 317 117 325Q117 330 120 339Q133 378 163 406T229 440Q241 442 246 442Q271 442 291 425T329 392T367 375Q389 375 411 408T434 441Q435 442 449 442H462Q468 436 468 434Q468 430 463 420T449 399T432 377T418 358L411 349Q368 298 275 214T160 106L148 94L163 93Q185 93 227 82T290 71Q328 71 360 90T402 140Q406 149 409 151T424 153Q443 153 443 143Q443 138 442 134Q425 72 376 31T278 -11Q252 -11 232 6T193 40T155 57Q111 57 76 -3Q70 -11 59 -11H54H41Q35 -5 35 -2Q35 13 93 84Q132 129 225 214T340 322Q352 338 347 338Z"/>
            <path id="prefigure-3d1-grid1-MJX-3-TEX-N-29" d="M60 749L64 750Q69 750 74 750H86L114 726Q208 641 251 514T294 250Q294 182 284 119T261 12T224 -76T186 -143T145 -194T113 -227T90 -246Q87 -249 86 -250H74Q66 -250 63 -250T58 -247T55 -238Q56 -237 66 -225Q221 -64 221 250T66 725Q56 737 55 738Q55 746 60 749Z"/>
          </defs>
          <g stroke="currentColor" fill="currentColor" stroke-width="0" transform="scale(1,-1)">
            <g data-mml-node="math" data-semantic-type="infixop" data-semantic-role="implicit" data-semantic-annotation="clearspeak:unit" data-semantic-id="9" data-semantic-children="0,7" data-semantic-content="8" data-semantic-speech="upper I m left parenthesis z right parenthesis">
              <g data-mml-node="mi" data-semantic-type="identifier" data-semantic-role="latinletter" data-semantic-font="italic" data-semantic-annotation="clearspeak:simple" data-semantic-id="0" data-semantic-parent="9" data-semantic-speech="upper I">
                <use data-c="1D43C" xlink:href="#prefigure-3d1-grid1-MJX-3-TEX-I-1D43C"/>
              </g>
              <g data-mml-node="mo" data-semantic-type="operator" data-semantic-role="multiplication" data-semantic-id="8" data-semantic-parent="9" data-semantic-added="true" data-semantic-operator="infixop,⁢" data-semantic-speech="times" transform="translate(504,0)">
                <use data-c="2062" xlink:href="#prefigure-3d1-grid1-MJX-3-TEX-N-2062"/>
              </g>
              <g data-mml-node="mrow" data-semantic-type="appl" data-semantic-role="simple function" data-semantic-annotation="clearspeak:simple" data-semantic-id="7" data-semantic-children="1,5" data-semantic-content="6,1" data-semantic-parent="9" data-semantic-speech="m left parenthesis z right parenthesis" transform="translate(504,0)">
                <g data-mml-node="mi" data-semantic-type="identifier" data-semantic-role="simple function" data-semantic-font="italic" data-semantic-annotation="clearspeak:simple" data-semantic-id="1" data-semantic-parent="7" data-semantic-operator="appl" data-semantic-speech="m">
                  <use data-c="1D45A" xlink:href="#prefigure-3d1-grid1-MJX-3-TEX-I-1D45A"/>
                </g>
                <g data-mml-node="mo" data-semantic-type="punctuation" data-semantic-role="application" data-semantic-id="6" data-semantic-parent="7" data-semantic-added="true" data-semantic-operator="appl" data-semantic-speech="of" transform="translate(878,0)">
                  <use data-c="2061" xlink:href="#prefigure-3d1-grid1-MJX-3-TEX-N-2061"/>
                </g>
                <g data-mml-node="mrow" data-semantic-type="fenced" data-semantic-role="leftright" data-semantic-id="5" data-semantic-children="3" data-semantic-content="2,4" data-semantic-parent="7" data-semantic-speech="left parenthesis z right parenthesis" transform="translate(878,0)">
                  <g data-mml-node="mo" data-semantic-type="fence" data-semantic-role="open" data-semantic-id="2" data-semantic-parent="5" data-semantic-operator="fenced" data-semantic-speech="left parenthesis">
                    <use data-c="28" xlink:href="#prefigure-3d1-grid1-MJX-3-TEX-N-28"/>
                  </g>
                  <g data-mml-node="mi" data-semantic-type="identifier" data-semantic-role="latinletter" data-semantic-font="italic" data-semantic-annotation="clearspeak:simple" data-semantic-id="3" data-semantic-parent="5" data-semantic-speech="z" transform="translate(389,0)">
                    <use data-c="1D467" xlink:href="#prefigure-3d1-grid1-MJX-3-TEX-I-1D467"/>
                  </g>
                  <g data-mml-node="mo" data-semantic-type="fence" data-semantic-role="close" data-semantic-id="4" data-semantic-parent="5" data-semantic-operator="fenced" data-semantic-speech="right parenthesis" transform="translate(854,0)">
                    <use data-c="29" xlink:href="#prefigure-3d1-grid1-MJX-3-TEX-N-29"/>
                  </g>
                </g>
              </g>
            </g>
          </g>
        </svg>
      </g>
    </g>
    <g id="prefigure-3d1-grid1-label-2" transform="translate(67.5,141.0) translate(-7.5,-0.0)">
      <g id="prefigure-3d1-grid1-g-2">
        <svg xmlns:xlink="http://www.w3.org/1999/xlink" style="vertical-align: 0.000px" width="15.080px" height="12.056px" role="img" focusable="false" viewBox="0 -666 833 666" x="0.0" y="0.0">
          <defs>
            <path id="prefigure-3d1-grid1-MJX-4-TEX-N-2D" d="M11 179V252H277V179H11Z"/>
            <path id="prefigure-3d1-grid1-MJX-4-TEX-N-32" d="M109 429Q82 429 66 447T50 491Q50 562 103 614T235 666Q326 666 387 610T449 465Q449 422 429 383T381 315T301 241Q265 210 201 149L142 93L218 92Q375 92 385 97Q392 99 409 186V189H449V186Q448 183 436 95T421 3V0H50V19V31Q50 38 56 46T86 81Q115 113 136 137Q145 147 170 174T204 211T233 244T261 278T284 308T305 340T320 369T333 401T340 431T343 464Q343 527 309 573T212 619Q179 619 154 602T119 569T109 550Q109 549 114 549Q132 549 151 535T170 489Q170 464 154 447T109 429Z"/>
          </defs>
          <g stroke="currentColor" fill="currentColor" stroke-width="0" transform="scale(1,-1)">
            <g data-mml-node="math">
              <g data-mml-node="mtext" data-semantic-type="text" data-semantic-role="unknown" data-semantic-font="normal" data-semantic-annotation="clearspeak:unit" data-semantic-id="0" data-semantic-speech="hyphen 2">
                <use data-c="2D" xlink:href="#prefigure-3d1-grid1-MJX-4-TEX-N-2D"/>
                <use data-c="32" xlink:href="#prefigure-3d1-grid1-MJX-4-TEX-N-32" transform="translate(333,0)"/>
              </g>
            </g>
          </g>
        </svg>
      </g>
    </g>
    <g id="prefigure-3d1-grid1-label-3" transform="translate(192.5,141.0) translate(-4.5,-0.0)">
      <g id="prefigure-3d1-grid1-g-3">
        <svg xmlns:xlink="http://www.w3.org/1999/xlink" style="vertical-align: 0.000px" width="9.048px" height="12.056px" role="img" focusable="false" viewBox="0 -666 500 666" x="0.0" y="0.0">
          <defs>
            <path id="prefigure-3d1-grid1-MJX-5-TEX-N-32" d="M109 429Q82 429 66 447T50 491Q50 562 103 614T235 666Q326 666 387 610T449 465Q449 422 429 383T381 315T301 241Q265 210 201 149L142 93L218 92Q375 92 385 97Q392 99 409 186V189H449V186Q448 183 436 95T421 3V0H50V19V31Q50 38 56 46T86 81Q115 113 136 137Q145 147 170 174T204 211T233 244T261 278T284 308T305 340T320 369T333 401T340 431T343 464Q343 527 309 573T212 619Q179 619 154 602T119 569T109 550Q109 549 114 549Q132 549 151 535T170 489Q170 464 154 447T109 429Z"/>
          </defs>
          <g stroke="currentColor" fill="currentColor" stroke-width="0" transform="scale(1,-1)">
            <g data-mml-node="math">
              <g data-mml-node="mtext" data-semantic-type="text" data-semantic-role="integer" data-semantic-font="normal" data-semantic-annotation="clearspeak:unit" data-semantic-id="0" data-semantic-speech="2">
                <use data-c="32" xlink:href="#prefigure-3d1-grid1-MJX-5-TEX-N-32"/>
              </g>
            </g>
          </g>
        </svg>
      </g>
    </g>
    <g id="prefigure-3d1-grid1-label-4" transform="translate(119.0,192.5) translate(-15.1,-6.0)">
      <g id="prefigure-3d1-grid1-g-4">
        <svg xmlns:xlink="http://www.w3.org/1999/xlink" style="vertical-align: 0.000px" width="15.080px" height="12.056px" role="img" focusable="false" viewBox="0 -666 833 666" x="0.0" y="0.0">
          <defs>
            <path id="prefigure-3d1-grid1-MJX-6-TEX-N-2D" d="M11 179V252H277V179H11Z"/>
            <path id="prefigure-3d1-grid1-MJX-6-TEX-N-32" d="M109 429Q82 429 66 447T50 491Q50 562 103 614T235 666Q326 666 387 610T449 465Q449 422 429 383T381 315T301 241Q265 210 201 149L142 93L218 92Q375 92 385 97Q392 99 409 186V189H449V186Q448 183 436 95T421 3V0H50V19V31Q50 38 56 46T86 81Q115 113 136 137Q145 147 170 174T204 211T233 244T261 278T284 308T305 340T320 369T333 401T340 431T343 464Q343 527 309 573T212 619Q179 619 154 602T119 569T109 550Q109 549 114 549Q132 549 151 535T170 489Q170 464 154 447T109 429Z"/>
          </defs>
          <g stroke="currentColor" fill="currentColor" stroke-width="0" transform="scale(1,-1)">
            <g data-mml-node="math">
              <g data-mml-node="mtext" data-semantic-type="text" data-semantic-role="unknown" data-semantic-font="normal" data-semantic-annotation="clearspeak:unit" data-semantic-id="0" data-semantic-speech="hyphen 2">
                <use data-c="2D" xlink:href="#prefigure-3d1-grid1-MJX-6-TEX-N-2D"/>
                <use data-c="32" xlink:href="#prefigure-3d1-grid1-MJX-6-TEX-N-32" transform="translate(333,0)"/>
              </g>
            </g>
          </g>
        </svg>
      </g>
    </g>
    <g id="prefigure-3d1-grid1-label-5" transform="translate(119.0,67.5) translate(-9.0,-6.0)">
      <g id="prefigure-3d1-grid1-g-5">
        <svg xmlns:xlink="http://www.w3.org/1999/xlink" style="vertical-align: 0.000px" width="9.048px" height="12.056px" role="img" focusable="false" viewBox="0 -666 500 666" x="0.0" y="0.0">
          <defs>
            <path id="prefigure-3d1-grid1-MJX-7-TEX-N-32" d="M109 429Q82 429 66 447T50 491Q50 562 103 614T235 666Q326 666 387 610T449 465Q449 422 429 383T381 315T301 241Q265 210 201 149L142 93L218 92Q375 92 385 97Q392 99 409 186V189H449V186Q448 183 436 95T421 3V0H50V19V31Q50 38 56 46T86 81Q115 113 136 137Q145 147 170 174T204 211T233 244T261 278T284 308T305 340T320 369T333 401T340 431T343 464Q343 527 309 573T212 619Q179 619 154 602T119 569T109 550Q109 549 114 549Q132 549 151 535T170 489Q170 464 154 447T109 429Z"/>
          </defs>
          <g stroke="currentColor" fill="currentColor" stroke-width="0" transform="scale(1,-1)">
            <g data-mml-node="math">
              <g data-mml-node="mtext" data-semantic-type="text" data-semantic-role="integer" data-semantic-font="normal" data-semantic-annotation="clearspeak:unit" data-semantic-id="0" data-semantic-speech="2">
                <use data-c="32" xlink:href="#prefigure-3d1-grid1-MJX-7-TEX-N-32"/>
              </g>
            </g>
          </g>
        </svg>
      </g>
    </g>
  </g>
</svg>
